<?xml version="1.0" encoding="UTF-8"?>
<svg width="224px" height="33px" viewBox="0 0 224 33" version="1.1" xmlns="http://www.w3.org/2000/svg" xmlns:xlink="http://www.w3.org/1999/xlink">
    <title>chefs-corner-logo</title>
    <g id="Desktop-Recipe-Layout" stroke="none" stroke-width="1" fill="none" fill-rule="evenodd">
        <g id="cc-desktop-recipe-page" transform="translate(-400.000000, -18.000000)">
            <g id="header-navigation" transform="translate(0.000000, 10.000000)">
                <g id="chefs-corner-logo" transform="translate(400.236544, 8.236544)">
                    <g id="chefs-corner-logo-text" transform="translate(43.318912, 6.675456)" fill="#262626" fill-rule="nonzero">
                        <path d="M0,8.64 C0,6.976 0.36,5.492 1.08,4.188 C1.8,2.884 2.804,1.868 4.092,1.14 C5.38,0.412 6.84,0.048 8.472,0.048 C10.472,0.048 12.184,0.576 13.608,1.632 C15.032,2.688 15.984,4.128 16.464,5.952 L11.952,5.952 C11.616,5.248 11.14,4.712 10.524,4.344 C9.908,3.976 9.208,3.792 8.424,3.792 C7.16,3.792 6.136,4.232 5.352,5.112 C4.568,5.992 4.176,7.168 4.176,8.64 C4.176,10.112 4.568,11.288 5.352,12.168 C6.136,13.048 7.16,13.488 8.424,13.488 C9.208,13.488 9.908,13.304 10.524,12.936 C11.14,12.568 11.616,12.032 11.952,11.328 L16.464,11.328 C15.984,13.152 15.032,14.588 13.608,15.636 C12.184,16.684 10.472,17.208 8.472,17.208 C6.84,17.208 5.38,16.844 4.092,16.116 C2.804,15.388 1.8,14.376 1.08,13.08 C0.36,11.784 0,10.304 0,8.64 Z" id="Path"></path>
                        <polygon id="Path" points="33.576 0.24 33.576 17.088 29.472 17.088 29.472 10.152 23.088 10.152 23.088 17.088 18.984 17.088 18.984 0.24 23.088 0.24 23.088 6.84 29.472 6.84 29.472 0.24"></polygon>
                        <polygon id="Path" points="40.632 3.528 40.632 6.936 46.128 6.936 46.128 10.104 40.632 10.104 40.632 13.8 46.848 13.8 46.848 17.088 36.528 17.088 36.528 0.24 46.848 0.24 46.848 3.528"></polygon>
                        <polygon id="Path" points="60.48 0.24 60.48 3.528 53.616 3.528 53.616 7.08 58.752 7.08 58.752 10.272 53.616 10.272 53.616 17.088 49.512 17.088 49.512 0.24"></polygon>
                        <path d="M68.736,17.256 C67.504,17.256 66.4,17.056 65.424,16.656 C64.448,16.256 63.668,15.664 63.084,14.88 C62.5,14.096 62.192,13.152 62.16,12.048 L66.528,12.048 C66.592,12.672 66.808,13.148 67.176,13.476 C67.544,13.804 68.024,13.968 68.616,13.968 C69.224,13.968 69.704,13.828 70.056,13.548 C70.408,13.268 70.584,12.88 70.584,12.384 C70.584,11.968 70.444,11.624 70.164,11.352 C69.884,11.08 69.54,10.856 69.132,10.68 C68.724,10.504 68.144,10.304 67.392,10.08 C66.304,9.744 65.416,9.408 64.728,9.072 C64.04,8.736 63.448,8.24 62.952,7.584 C62.456,6.928 62.208,6.072 62.208,5.016 C62.208,3.448 62.776,2.22 63.912,1.332 C65.048,0.444 66.528,0 68.352,0 C70.208,0 71.704,0.444 72.84,1.332 C73.976,2.22 74.584,3.456 74.664,5.04 L70.224,5.04 C70.192,4.496 69.992,4.068 69.624,3.756 C69.256,3.444 68.784,3.288 68.208,3.288 C67.712,3.288 67.312,3.42 67.008,3.684 C66.704,3.948 66.552,4.328 66.552,4.824 C66.552,5.368 66.808,5.792 67.32,6.096 C67.832,6.4 68.632,6.728 69.72,7.08 C70.808,7.448 71.692,7.8 72.372,8.136 C73.052,8.472 73.64,8.96 74.136,9.6 C74.632,10.24 74.88,11.064 74.88,12.072 C74.88,13.032 74.636,13.904 74.148,14.688 C73.66,15.472 72.952,16.096 72.024,16.56 C71.096,17.024 70,17.256 68.736,17.256 Z" id="Path"></path>
                        <path d="M81.792,8.64 C81.792,6.976 82.152,5.492 82.872,4.188 C83.592,2.884 84.596,1.868 85.884,1.14 C87.172,0.412 88.632,0.048 90.264,0.048 C92.264,0.048 93.976,0.576 95.4,1.632 C96.824,2.688 97.776,4.128 98.256,5.952 L93.744,5.952 C93.408,5.248 92.932,4.712 92.316,4.344 C91.7,3.976 91,3.792 90.216,3.792 C88.952,3.792 87.928,4.232 87.144,5.112 C86.36,5.992 85.968,7.168 85.968,8.64 C85.968,10.112 86.36,11.288 87.144,12.168 C87.928,13.048 88.952,13.488 90.216,13.488 C91,13.488 91.7,13.304 92.316,12.936 C92.932,12.568 93.408,12.032 93.744,11.328 L98.256,11.328 C97.776,13.152 96.824,14.588 95.4,15.636 C93.976,16.684 92.264,17.208 90.264,17.208 C88.632,17.208 87.172,16.844 85.884,16.116 C84.596,15.388 83.592,14.376 82.872,13.08 C82.152,11.784 81.792,10.304 81.792,8.64 Z" id="Path"></path>
                        <path d="M108.744,17.256 C107.16,17.256 105.708,16.888 104.388,16.152 C103.068,15.416 102.02,14.388 101.244,13.068 C100.468,11.748 100.08,10.264 100.08,8.616 C100.08,6.968 100.468,5.488 101.244,4.176 C102.02,2.864 103.068,1.84 104.388,1.104 C105.708,0.368 107.16,0 108.744,0 C110.328,0 111.78,0.368 113.1,1.104 C114.42,1.84 115.46,2.864 116.22,4.176 C116.98,5.488 117.36,6.968 117.36,8.616 C117.36,10.264 116.976,11.748 116.208,13.068 C115.44,14.388 114.4,15.416 113.088,16.152 C111.776,16.888 110.328,17.256 108.744,17.256 Z M108.744,13.512 C110.088,13.512 111.164,13.064 111.972,12.168 C112.78,11.272 113.184,10.088 113.184,8.616 C113.184,7.128 112.78,5.94 111.972,5.052 C111.164,4.164 110.088,3.72 108.744,3.72 C107.384,3.72 106.3,4.16 105.492,5.04 C104.684,5.92 104.28,7.112 104.28,8.616 C104.28,10.104 104.684,11.292 105.492,12.18 C106.3,13.068 107.384,13.512 108.744,13.512 Z" id="Shape"></path>
                        <path d="M128.232,17.088 L124.728,10.728 L123.744,10.728 L123.744,17.088 L119.64,17.088 L119.64,0.24 L126.528,0.24 C127.856,0.24 128.988,0.472 129.924,0.936 C130.86,1.4 131.56,2.036 132.024,2.844 C132.488,3.652 132.72,4.552 132.72,5.544 C132.72,6.664 132.404,7.664 131.772,8.544 C131.14,9.424 130.208,10.048 128.976,10.416 L132.864,17.088 L128.232,17.088 Z M123.744,7.824 L126.288,7.824 C127.04,7.824 127.604,7.64 127.98,7.272 C128.356,6.904 128.544,6.384 128.544,5.712 C128.544,5.072 128.356,4.568 127.98,4.2 C127.604,3.832 127.04,3.648 126.288,3.648 L123.744,3.648 L123.744,7.824 Z" id="Shape"></path>
                        <polygon id="Path" points="150.36 17.088 146.256 17.088 139.392 6.696 139.392 17.088 135.288 17.088 135.288 0.24 139.392 0.24 146.256 10.68 146.256 0.24 150.36 0.24"></polygon>
                        <polygon id="Path" points="157.44 3.528 157.44 6.936 162.936 6.936 162.936 10.104 157.44 10.104 157.44 13.8 163.656 13.8 163.656 17.088 153.336 17.088 153.336 0.24 163.656 0.24 163.656 3.528"></polygon>
                        <path d="M174.912,17.088 L171.408,10.728 L170.424,10.728 L170.424,17.088 L166.32,17.088 L166.32,0.24 L173.208,0.24 C174.536,0.24 175.668,0.472 176.604,0.936 C177.54,1.4 178.24,2.036 178.704,2.844 C179.168,3.652 179.4,4.552 179.4,5.544 C179.4,6.664 179.084,7.664 178.452,8.544 C177.82,9.424 176.888,10.048 175.656,10.416 L179.544,17.088 L174.912,17.088 Z M170.424,7.824 L172.968,7.824 C173.72,7.824 174.284,7.64 174.66,7.272 C175.036,6.904 175.224,6.384 175.224,5.712 C175.224,5.072 175.036,4.568 174.66,4.2 C174.284,3.832 173.72,3.648 172.968,3.648 L170.424,3.648 L170.424,7.824 Z" id="Shape"></path>
                    </g>
                    <g id="chefs-corner-logo-icon" transform="translate(16.263456, 16.263456) rotate(-135.000000) translate(-16.263456, -16.263456) translate(4.763456, 4.763456)" fill="#E6001D">
                        <rect id="Rectangle" x="0" y="17.25" width="5.75" height="5.75"></rect>
                        <rect id="Rectangle-Copy" x="8.625" y="8.625" width="5.75" height="14.375"></rect>
                        <rect id="Rectangle-Copy-4" x="17.25" y="0" width="5.75" height="23"></rect>
                        <rect id="Rectangle-Copy-2" x="0" y="8.625" width="14.375" height="5.75"></rect>
                        <rect id="Rectangle-Copy-3" x="0" y="0" width="23" height="5.75"></rect>
                    </g>
                </g>
            </g>
        </g>
    </g>
</svg>